<?xml version="1.0" encoding="utf-8"?>
<!-- Generator: Adobe Illustrator 27.8.0, SVG Export Plug-In . SVG Version: 6.00 Build 0)  -->
<svg version="1.1" xmlns="http://www.w3.org/2000/svg" xmlns:xlink="http://www.w3.org/1999/xlink" x="0px" y="0px"
	 viewBox="0 0 841.9 595.3" style="enable-background:new 0 0 841.9 595.3;" xml:space="preserve">
<style type="text/css">
	.st0{fill-rule:evenodd;clip-rule:evenodd;}
	.st1{fill:#FFFFFF;}
	.st2{fill-rule:evenodd;clip-rule:evenodd;fill:none;stroke:#009FE3;stroke-width:7.6964;stroke-miterlimit:10;}
	.st3{display:none;}
</style>
<g id="Ebene_1">
	<path class="st0" d="M296.5,286.5c2.2-1.2,4.5-2.6,6.3-3.6c3-1.6,6-3.7,8.8-5.5c12.1-7.9,21.7-15.7,32.7-24.7
		c2.2-1.8,13.6-11.7,15.6-12.8c-0.2,1.9-1.1,4.5-1.5,6.4l-4,19.3c-1.1,7.1-1.9,13.8-2.1,20.9h343.5c-0.1-4-0.3-8-0.6-11.9
		c-1.4-18.5-3.2-34.5-7.5-51.5c-11.3-44-33.9-79.2-77.3-96.5c-29.4-11.7-64.9-12.9-100.3-5.8c-31.6,6.4-60.5,19.8-83.3,33.7
		c-12.4,7.6-23.1,15.3-33.9,23.8c-11.2,8.8-20.8,17.6-31.6,26.3c-10.6,8.6-20.8,17.4-32.1,25.8c-10.7,8-22,16.7-34.1,23.9
		c-17.9,10.6-23.1,10.5-47.9,11.1c-11,0.3-76.4,3-84.4,0.5c-4.1-1.3-7.4-2.5-12.6-2.9c-6.6-0.5-17.9-0.6-20.3,6.9
		c-0.9,2.8-1.2,9.3-1.2,16.4H296.5z"/>
	<path class="st0" d="M296.5,286.5c2.2-1.2,4.5-2.6,6.3-3.6c3-1.6,6-3.7,8.8-5.5c12.1-7.9,21.7-15.7,32.7-24.7
		c2.2-1.8,13.6-11.7,15.6-12.8c-0.2,1.9-1.1,4.5-1.5,6.4l-4,19.3c-1.1,7.1-1.9,13.8-2.1,20.9h343.5c-0.1-4-0.3-8-0.6-11.9
		c-1.4-18.5-3.2-34.5-7.5-51.5c-11.3-44-33.9-79.2-77.3-96.5c-29.4-11.7-64.9-12.9-100.3-5.8c-31.6,6.4-60.5,19.8-83.3,33.7
		c-12.4,7.6-23.1,15.3-33.9,23.8c-11.2,8.8-20.8,17.6-31.6,26.3c-10.6,8.6-20.8,17.4-32.1,25.8c-10.7,8-22,16.7-34.1,23.9
		c-17.9,10.6-23.1,10.5-47.9,11.1c-11,0.3-76.4,3-84.4,0.5c-4.1-1.3-7.4-2.5-12.6-2.9c-6.6-0.5-17.9-0.6-20.3,6.9
		c-0.9,2.8-1.2,9.3-1.2,16.4H296.5z"/>
	<g>
		<circle class="st1" cx="536.7" cy="202.6" r="11.7"/>
		<circle class="st1" cx="536.7" cy="174.8" r="8.1"/>
		<circle class="st1" cx="536.7" cy="154" r="5.9"/>
		<circle class="st1" cx="593.1" cy="165.4" r="5.9"/>
		<circle class="st1" cx="640.8" cy="197.2" r="5.9"/>
		<circle class="st1" cx="480.3" cy="165.4" r="5.9"/>
		<circle class="st1" cx="432.7" cy="197.4" r="5.9"/>
		<circle class="st1" cx="488.3" cy="184.3" r="8.1"/>
		<circle class="st1" cx="447.2" cy="211.8" r="8.1"/>
		<circle class="st1" cx="420" cy="252.9" r="8.1"/>
		<circle class="st1" cx="585.2" cy="184.3" r="8.1"/>
		<circle class="st1" cx="626.1" cy="211.6" r="8.1"/>
		<circle class="st1" cx="653.7" cy="253" r="8.1"/>
		<circle class="st1" cx="498.9" cy="209.8" r="11.7"/>
		<circle class="st1" cx="466.6" cy="231.2" r="11.7"/>
		<circle class="st1" cx="445.3" cy="263.7" r="11.7"/>
		<circle class="st1" cx="574.4" cy="210.1" r="11.7"/>
		<circle class="st1" cx="606.8" cy="231.5" r="11.7"/>
		<circle class="st1" cx="628.2" cy="263.6" r="11.7"/>
	</g>
	<g>
		<path d="M144.1,237.7h-13.3v-3.3h31v3.3h-13.3v19.3h-4.4V237.7z"/>
		<path d="M183.9,245.7c0-4.3,1.5-7.3,4.5-9.1c3-1.8,7.2-2.7,12.7-2.7c4.9,0,8.7,0.6,11.5,1.8c2.7,1.2,4.3,3.3,4.8,6.2H213
			c-0.5-1.9-1.7-3.2-3.7-3.8c-2-0.7-4.7-1-8.2-1c-2,0-3.7,0.1-5.3,0.4c-1.6,0.3-2.9,0.7-4,1.3c-1.1,0.6-2,1.4-2.5,2.5
			c-0.6,1-0.9,2.3-0.9,3.9v0.9c0,3.1,1.1,5.2,3.4,6.3c2.3,1.1,5.4,1.7,9.4,1.7c3.3,0,6-0.3,7.9-0.9c2-0.6,3.3-1.7,4-3.5h4.4
			c-0.7,2.7-2.3,4.6-5,5.8c-2.7,1.2-6.5,1.8-11.3,1.8c-5.5,0-9.7-0.9-12.7-2.6C185.4,252.9,183.9,249.9,183.9,245.7z"/>
		<path d="M241.2,234.3h26.6v3.3h-22.1v6.7h18.9v3.2h-18.9v9.4h-4.4V234.3z"/>
	</g>
	<path class="st1" d="M585.9,275.7c0-26.6-21.6-48.2-48.2-48.2c-26.6,0-48.2,21.6-48.2,48.2c0,3.7,0.5,7.4,1.3,10.8h93.9
		C585.4,283,585.9,279.4,585.9,275.7z"/>
	<g>
		<path d="M128.3,331.1h8.6c1.6,3.1,4.1,5.2,7.5,6.3c3.4,1.1,8.4,1.6,15,1.6c7.5,0,12.8-0.7,16-2c3.2-1.3,4.8-3.1,4.8-5.5
			c0-3.6-2.7-5.6-8-6c-5.3-0.5-11.1-0.8-17.5-1c-6.3-0.2-12.2-1-17.5-2.3c-5.3-1.3-8-4.7-8-10c0-4.7,2.6-8.1,7.7-10.4
			c5.2-2.2,12.4-3.3,21.7-3.3c9.2,0,16.1,1.1,20.8,3.4c4.7,2.3,7.5,5.9,8.4,10.8h-8.6c-0.7-3-2.9-5.2-6.6-6.3
			c-3.6-1.2-8.3-1.8-14.1-1.8c-6.9,0-12.1,0.6-15.6,1.7c-3.6,1.1-5.3,3-5.3,5.7c0,3.3,2.7,5.2,8,5.6c5.3,0.4,11.1,0.6,17.5,0.8
			c6.3,0.2,12.1,1,17.5,2.4c5.3,1.4,8,4.9,8,10.3c0,4.6-2.2,8.1-6.7,10.5c-4.5,2.3-12,3.5-22.5,3.5c-5,0-9.4-0.3-13.1-0.8
			c-3.7-0.6-6.7-1.4-9.2-2.6c-2.5-1.1-4.4-2.6-5.8-4.4C129.9,335.5,128.9,333.4,128.3,331.1z"/>
		<path d="M232.6,323.4v-24h8.4v23.5c0,6,1.9,10.2,5.7,12.4c3.8,2.2,9.1,3.4,15.8,3.4c6.8,0,12.1-1.1,15.9-3.4
			c3.8-2.2,5.7-6.4,5.7-12.4v-23.5h7.6v24c0,7.3-2.4,12.8-7.3,16.4c-4.9,3.6-12.2,5.4-21.9,5.4c-9.9,0-17.4-1.8-22.4-5.4
			C235.1,336.2,232.6,330.7,232.6,323.4z"/>
		<path d="M338.8,299.4h11.7l38.5,38.5v-38.5h7.6v44.9h-11.5l-38.7-38.7v38.7h-7.6V299.4z"/>
		<path d="M441,331.1h8.6c1.6,3.1,4.1,5.2,7.5,6.3c3.4,1.1,8.4,1.6,15,1.6c7.5,0,12.8-0.7,16-2c3.2-1.3,4.8-3.1,4.8-5.5
			c0-3.6-2.7-5.6-8-6s-11.1-0.8-17.5-1c-6.3-0.2-12.2-1-17.5-2.3s-8-4.7-8-10c0-4.7,2.6-8.1,7.8-10.4c5.2-2.2,12.4-3.3,21.7-3.3
			c9.2,0,16.1,1.1,20.8,3.4c4.7,2.3,7.5,5.9,8.4,10.8h-8.6c-0.7-3-2.9-5.2-6.6-6.3c-3.6-1.2-8.3-1.8-14.1-1.8
			c-6.9,0-12.1,0.6-15.6,1.7c-3.6,1.1-5.3,3-5.3,5.7c0,3.3,2.7,5.2,8,5.6c5.3,0.4,11.1,0.6,17.5,0.8c6.3,0.2,12.1,1,17.5,2.4
			c5.3,1.4,8,4.9,8,10.3c0,4.6-2.2,8.1-6.7,10.5c-4.5,2.3-12,3.5-22.5,3.5c-5,0-9.4-0.3-13.1-0.8c-3.7-0.6-6.7-1.4-9.2-2.6
			c-2.5-1.1-4.4-2.6-5.8-4.4S441.6,333.4,441,331.1z"/>
		<path d="M546.1,299.4h50.8v6.2h-42.4v12.9h32.6v5.9h-32.6v13.7h42.7v6.2h-51.1V299.4z"/>
		<path d="M662.1,306h-25.4v-6.6h59.1v6.6h-25.3v38.3h-8.4V306z"/>
		<path d="M279.7,356.8h24.2c3.5,0,6,0.8,7.7,2.4c1.6,1.6,2.5,3.8,2.5,6.6c0,2.9-0.8,5.1-2.5,6.8c-1.6,1.7-4.2,2.5-7.7,2.5h-19.1v9
			h-5.1V356.8z M308.9,366.5v-0.8c0-1.5-0.4-2.7-1.3-3.6c-0.9-0.9-2.3-1.3-4.3-1.3h-18.4v10.7h18.4c2,0,3.5-0.4,4.3-1.3
			C308.5,369.2,308.9,368,308.9,366.5z"/>
		<path d="M348,356.8h6.6l16.9,27.5h-5.4l-4.7-7.7h-20.5l-4.7,7.7H331L348,356.8z M343.2,372.9H359l-7.9-12.9L343.2,372.9z"/>
		<path d="M395,356.8h22.7c5.1,0,9.1,1.1,11.7,3.2c2.7,2.1,4,5.7,4,10.6c0,4.8-1.3,8.3-4,10.5c-2.7,2.2-6.6,3.2-11.7,3.2H395V356.8z
			 M417.2,380.3c3.6,0,6.3-0.7,8.2-2.1c1.9-1.4,2.9-3.8,2.9-7.1v-1.1c0-3.2-1-5.5-2.9-6.9c-1.9-1.4-4.7-2.1-8.2-2.1h-17v19.4H417.2z
			"/>
		<path d="M459.2,356.8h31.1v3.8h-25.9v7.9h20v3.6h-20v8.4h26.1v3.8h-31.2V356.8z"/>
		<path d="M515.6,356.8h5.1v23.4h25v4.1h-30.1V356.8z"/>
	</g>
	<path class="st2" d="M174.7,286.5"/>
	<path class="st1" d="M213.4,286.6h8.4l8.6-20.6c-2.7,0.1-5.5,0.2-8.5,0.3L213.4,286.6z"/>
	<path class="st1" d="M261.9,286.5h8.4l10.4-25c-3.1,1.2-6.2,2-9.5,2.5L261.9,286.5z"/>
	<path class="st1" d="M164.9,286.6h8.4l8.2-19.6c-3,0-5.9,0-8.4-0.1L164.9,286.6z"/>
</g>
<g id="Ebene_2" class="st3">
</g>
</svg>
